<mxfile host="app.diagrams.net" modified="2023-08-26T16:42:43.276Z" agent="Mozilla/5.0 (Macintosh; Intel Mac OS X 10.15; rv:109.0) Gecko/20100101 Firefox/116.0" etag="xOXzVxJigdtdcDApLNY7" version="21.6.9" type="device">
  <diagram name="Page-1" id="YWoIyxld92iJNe7UsYZo">
    <mxGraphModel dx="1509" dy="809" grid="1" gridSize="10" guides="1" tooltips="1" connect="1" arrows="1" fold="1" page="1" pageScale="1" pageWidth="850" pageHeight="1100" math="0" shadow="0">
      <root>
        <mxCell id="0" />
        <mxCell id="1" parent="0" />
        <mxCell id="EkcV37fycoc5ZIlhqFYn-3" style="edgeStyle=orthogonalEdgeStyle;rounded=0;orthogonalLoop=1;jettySize=auto;html=1;exitX=0.5;exitY=1;exitDx=0;exitDy=0;" edge="1" parent="1" source="EkcV37fycoc5ZIlhqFYn-1" target="EkcV37fycoc5ZIlhqFYn-2">
          <mxGeometry relative="1" as="geometry" />
        </mxCell>
        <mxCell id="EkcV37fycoc5ZIlhqFYn-5" style="edgeStyle=orthogonalEdgeStyle;rounded=0;orthogonalLoop=1;jettySize=auto;html=1;exitX=0.5;exitY=1;exitDx=0;exitDy=0;entryX=0.5;entryY=0;entryDx=0;entryDy=0;" edge="1" parent="1" source="EkcV37fycoc5ZIlhqFYn-1" target="EkcV37fycoc5ZIlhqFYn-4">
          <mxGeometry relative="1" as="geometry">
            <Array as="points">
              <mxPoint x="440" y="280" />
              <mxPoint x="205" y="280" />
            </Array>
          </mxGeometry>
        </mxCell>
        <mxCell id="EkcV37fycoc5ZIlhqFYn-7" style="edgeStyle=orthogonalEdgeStyle;rounded=0;orthogonalLoop=1;jettySize=auto;html=1;exitX=0.5;exitY=1;exitDx=0;exitDy=0;entryX=0.5;entryY=0;entryDx=0;entryDy=0;" edge="1" parent="1" source="EkcV37fycoc5ZIlhqFYn-1" target="EkcV37fycoc5ZIlhqFYn-6">
          <mxGeometry relative="1" as="geometry" />
        </mxCell>
        <mxCell id="EkcV37fycoc5ZIlhqFYn-9" style="edgeStyle=orthogonalEdgeStyle;rounded=0;orthogonalLoop=1;jettySize=auto;html=1;exitX=0.5;exitY=1;exitDx=0;exitDy=0;entryX=0.5;entryY=0;entryDx=0;entryDy=0;" edge="1" parent="1" source="EkcV37fycoc5ZIlhqFYn-1" target="EkcV37fycoc5ZIlhqFYn-8">
          <mxGeometry relative="1" as="geometry" />
        </mxCell>
        <mxCell id="EkcV37fycoc5ZIlhqFYn-16" style="edgeStyle=orthogonalEdgeStyle;rounded=0;orthogonalLoop=1;jettySize=auto;html=1;exitX=0.5;exitY=1;exitDx=0;exitDy=0;entryX=0.5;entryY=0;entryDx=0;entryDy=0;" edge="1" parent="1" source="EkcV37fycoc5ZIlhqFYn-1" target="EkcV37fycoc5ZIlhqFYn-10">
          <mxGeometry relative="1" as="geometry">
            <Array as="points">
              <mxPoint x="440" y="280" />
              <mxPoint x="645" y="280" />
            </Array>
          </mxGeometry>
        </mxCell>
        <mxCell id="EkcV37fycoc5ZIlhqFYn-17" style="edgeStyle=orthogonalEdgeStyle;rounded=0;orthogonalLoop=1;jettySize=auto;html=1;exitX=0.5;exitY=1;exitDx=0;exitDy=0;" edge="1" parent="1" source="EkcV37fycoc5ZIlhqFYn-1" target="EkcV37fycoc5ZIlhqFYn-14">
          <mxGeometry relative="1" as="geometry" />
        </mxCell>
        <mxCell id="EkcV37fycoc5ZIlhqFYn-1" value="&lt;div&gt;&lt;b&gt;&lt;font style=&quot;font-size: 18px;&quot;&gt;Spring Framework&lt;/font&gt;&lt;/b&gt;&lt;/div&gt;" style="rounded=0;whiteSpace=wrap;html=1;fillColor=#f8cecc;strokeColor=#b85450;" vertex="1" parent="1">
          <mxGeometry x="380" y="190" width="120" height="60" as="geometry" />
        </mxCell>
        <mxCell id="EkcV37fycoc5ZIlhqFYn-2" value="&lt;div&gt;&lt;b&gt;Core Technologies&lt;br&gt;&lt;/b&gt;&lt;/div&gt;" style="rounded=0;whiteSpace=wrap;html=1;fillColor=#d5e8d4;strokeColor=#82b366;" vertex="1" parent="1">
          <mxGeometry x="10" y="310" width="130" height="40" as="geometry" />
        </mxCell>
        <mxCell id="EkcV37fycoc5ZIlhqFYn-4" value="&lt;div&gt;&lt;b&gt;Testing&lt;br&gt;&lt;/b&gt;&lt;/div&gt;" style="rounded=0;whiteSpace=wrap;html=1;fillColor=#dae8fc;strokeColor=#6c8ebf;" vertex="1" parent="1">
          <mxGeometry x="140" y="390" width="130" height="40" as="geometry" />
        </mxCell>
        <mxCell id="EkcV37fycoc5ZIlhqFYn-6" value="&lt;b&gt;Data Access&lt;br&gt;&lt;/b&gt;" style="rounded=0;whiteSpace=wrap;html=1;fillColor=#e1d5e7;strokeColor=#9673a6;" vertex="1" parent="1">
          <mxGeometry x="270" y="310" width="130" height="40" as="geometry" />
        </mxCell>
        <mxCell id="EkcV37fycoc5ZIlhqFYn-8" value="&lt;b&gt;Web on Servlet Stack&lt;br&gt;&lt;/b&gt;" style="rounded=0;whiteSpace=wrap;html=1;fillColor=#fff2cc;strokeColor=#d6b656;" vertex="1" parent="1">
          <mxGeometry x="450" y="310" width="130" height="40" as="geometry" />
        </mxCell>
        <mxCell id="EkcV37fycoc5ZIlhqFYn-10" value="&lt;b&gt;Web on Reactive Stack&lt;br&gt;&lt;/b&gt;" style="rounded=0;whiteSpace=wrap;html=1;fillColor=#ffe6cc;strokeColor=#d79b00;" vertex="1" parent="1">
          <mxGeometry x="580" y="390" width="130" height="40" as="geometry" />
        </mxCell>
        <mxCell id="EkcV37fycoc5ZIlhqFYn-14" value="&lt;b&gt;Integration&lt;br&gt;&lt;/b&gt;" style="rounded=0;whiteSpace=wrap;html=1;fillColor=#f5f5f5;fontColor=#333333;strokeColor=#666666;" vertex="1" parent="1">
          <mxGeometry x="710" y="310" width="130" height="40" as="geometry" />
        </mxCell>
      </root>
    </mxGraphModel>
  </diagram>
</mxfile>
